<svg width="960" height="112" viewBox="0 0 960 112" fill="none" xmlns="http://www.w3.org/2000/svg">
<path d="M0 110.507V1.49333H65.2302V17.7707H18.3181V46.144H60.0177V62.272H18.3181V94.2293H65.2302V110.507H0Z" fill="#353534"/>
<path d="M87.3622 110.507V1.49333H119.679C127.027 1.49333 133.381 2.88711 138.742 5.67466C144.203 8.46222 148.422 12.3947 151.401 17.472C154.38 22.5493 155.869 28.5724 155.869 35.5413V76.3093C155.869 83.1787 154.38 89.2018 151.401 94.3787C148.422 99.456 144.203 103.438 138.742 106.325C133.381 109.113 127.027 110.507 119.679 110.507H87.3622ZM105.978 93.3333H119.679C125.041 93.3333 129.31 91.84 132.487 88.8533C135.664 85.7671 137.253 81.5858 137.253 76.3093V35.5413C137.253 30.3644 135.664 26.2827 132.487 23.296C129.31 20.2098 125.041 18.6667 119.679 18.6667H105.978V93.3333Z" fill="#353534"/>
<path d="M210.169 112C199.546 112 191.206 109.113 185.149 103.339C179.192 97.4649 176.214 89.5004 176.214 79.4453V1.49333H194.979V79.296C194.979 84.4729 196.269 88.5049 198.851 91.392C201.432 94.2791 205.205 95.7227 210.169 95.7227C215.034 95.7227 218.757 94.2791 221.339 91.392C224.019 88.5049 225.36 84.4729 225.36 79.296V1.49333H244.125V79.4453C244.125 89.5004 241.146 97.4649 235.189 103.339C229.232 109.113 220.892 112 210.169 112Z" fill="#353534"/>
<path d="M300.063 112C293.113 112 287.007 110.706 281.745 108.117C276.582 105.429 272.561 101.696 269.682 96.9173C266.902 92.0391 265.512 86.3147 265.512 79.744V32.256C265.512 25.5858 266.902 19.8613 269.682 15.0827C272.561 10.304 276.582 6.62044 281.745 4.03199C287.007 1.344 293.113 0 300.063 0C307.112 0 313.169 1.344 318.232 4.03199C323.395 6.62044 327.416 10.304 330.295 15.0827C333.175 19.8613 334.614 25.5858 334.614 32.256H315.849C315.849 27.0791 314.459 23.1467 311.679 20.4587C308.999 17.7707 305.127 16.4267 300.063 16.4267C295 16.4267 291.078 17.7707 288.298 20.4587C285.518 23.1467 284.128 27.0293 284.128 32.1067V79.744C284.128 84.8213 285.518 88.7538 288.298 91.5413C291.078 94.2293 295 95.5733 300.063 95.5733C305.127 95.5733 308.999 94.2293 311.679 91.5413C314.459 88.7538 315.849 84.8213 315.849 79.744H334.614C334.614 86.2151 333.175 91.8898 330.295 96.768C327.416 101.646 323.395 105.429 318.232 108.117C313.169 110.706 307.112 112 300.063 112Z" fill="#353534"/>
<path d="M349.3 110.507L376.703 1.49333H400.68L428.231 110.507H409.169L403.212 84.0747H374.32L368.363 110.507H349.3ZM377.745 68.8427H399.786L393.233 39.5733C392.141 34.6951 391.198 30.3147 390.404 26.432C389.61 22.4498 389.064 19.5627 388.766 17.7707C388.468 19.5627 387.922 22.4498 387.127 26.432C386.432 30.3147 385.489 34.6453 384.298 39.424L377.745 68.8427Z" fill="#353534"/>
<path d="M468.681 110.507V18.816H440.236V1.49333H515.891V18.816H487.446V110.507H468.681Z" fill="#353534"/>
<path d="M536.087 110.507V94.08H557.98V17.92H536.087V1.49333H598.637V17.92H576.745V94.08H598.637V110.507H536.087Z" fill="#353534"/>
<path d="M656.661 112C649.711 112 643.654 110.706 638.491 108.117C633.428 105.429 629.506 101.696 626.726 96.9173C624.045 92.0391 622.705 86.3147 622.705 79.744V32.256C622.705 25.6853 624.045 20.0107 626.726 15.232C629.506 10.3538 633.428 6.62044 638.491 4.03199C643.654 1.344 649.711 0 656.661 0C663.71 0 669.766 1.344 674.83 4.03199C679.893 6.62044 683.765 10.3538 686.446 15.232C689.226 20.0107 690.616 25.6356 690.616 32.1067V79.744C690.616 86.3147 689.226 92.0391 686.446 96.9173C683.765 101.696 679.893 105.429 674.83 108.117C669.766 110.706 663.71 112 656.661 112ZM656.661 95.5733C661.724 95.5733 665.546 94.2293 668.128 91.5413C670.709 88.7538 672 84.8213 672 79.744V32.256C672 27.0791 670.709 23.1467 668.128 20.4587C665.546 17.7707 661.724 16.4267 656.661 16.4267C651.597 16.4267 647.774 17.7707 645.193 20.4587C642.612 23.1467 641.321 27.0791 641.321 32.256V79.744C641.321 84.8213 642.612 88.7538 645.193 91.5413C647.874 94.2293 651.696 95.5733 656.661 95.5733Z" fill="#353534"/>
<path d="M712.003 110.507V1.49333H734.789L765.021 89.6C764.724 86.4142 764.376 82.6809 763.979 78.4C763.681 74.0195 763.433 69.5893 763.234 65.1093C763.036 60.5298 762.936 56.5476 762.936 53.1627V1.49333H779.914V110.507H757.128L727.194 22.4C727.392 25.2871 727.641 28.7715 727.939 32.8533C728.236 36.9351 728.485 41.1164 728.683 45.3973C728.882 49.6782 728.981 53.6107 728.981 57.1947V110.507H712.003Z" fill="#353534"/>
<path d="M795.791 110.507L823.194 1.49333H847.171L874.723 110.507H855.66L849.703 84.0747H820.811L814.854 110.507H795.791ZM824.236 68.8427H846.278L839.725 39.5733C838.633 34.6951 837.689 30.3147 836.895 26.432C836.101 22.4498 835.555 19.5627 835.257 17.7707C834.959 19.5627 834.413 22.4498 833.619 26.432C832.924 30.3147 831.981 34.6453 830.789 39.424L824.236 68.8427Z" fill="#353534"/>
<path d="M895.217 110.507V1.49333H913.833V93.184H960V110.507H895.217Z" fill="#353534"/>
</svg>
