<svg width="960" height="112" viewBox="0 0 960 112" fill="none" xmlns="http://www.w3.org/2000/svg">
<path d="M0 110.507V1.49333H67.1702V18.816H18.1981V47.936H63.3235V65.2587H18.494V110.507H0Z" fill="#353534"/>
<path d="M121.263 112C114.358 112 108.342 110.706 103.213 108.117C98.1824 105.429 94.2863 101.696 91.5245 96.9173C88.8614 92.0391 87.5298 86.3147 87.5298 79.744V32.256C87.5298 25.6853 88.8614 20.0107 91.5245 15.232C94.2863 10.3538 98.1824 6.62044 103.213 4.03199C108.342 1.344 114.358 0 121.263 0C128.266 0 134.283 1.344 139.313 4.03199C144.343 6.62044 148.19 10.3538 150.853 15.232C153.615 20.0107 154.996 25.6356 154.996 32.1067V79.744C154.996 86.3147 153.615 92.0391 150.853 96.9173C148.19 101.696 144.343 105.429 139.313 108.117C134.283 110.706 128.266 112 121.263 112ZM121.263 95.5733C126.293 95.5733 130.091 94.2293 132.655 91.5413C135.22 88.7538 136.502 84.8213 136.502 79.744V32.256C136.502 27.0791 135.22 23.1467 132.655 20.4587C130.091 17.7707 126.293 16.4267 121.263 16.4267C116.233 16.4267 112.435 17.7707 109.871 20.4587C107.306 23.1467 106.024 27.0791 106.024 32.256V79.744C106.024 84.8213 107.306 88.7538 109.871 91.5413C112.534 94.2293 116.331 95.5733 121.263 95.5733Z" fill="#353534"/>
<path d="M176.835 110.507V1.49333H211.012C218.212 1.49333 224.426 2.83733 229.654 5.52533C234.98 8.21333 239.123 11.9964 242.082 16.8747C245.041 21.6533 246.52 27.328 246.52 33.8987C246.52 41.0667 244.696 47.3884 241.046 52.864C237.495 58.3395 232.662 62.2222 226.547 64.512L248 110.507H227.287L208.497 67.2H195.329V110.507H176.835ZM195.329 50.7733H211.012C216.24 50.7733 220.333 49.3298 223.292 46.4427C226.251 43.5555 227.731 39.5733 227.731 34.496C227.731 29.3191 226.251 25.2871 223.292 22.4C220.333 19.4133 216.24 17.92 211.012 17.92H195.329V50.7733Z" fill="#353534"/>
<rect x="288" width="16" height="56" fill="#338AF3"/>
<rect x="288" y="56" width="16" height="56" fill="#FFDA45"/>
<path d="M378.664 112C367.819 112 359.305 109.074 353.122 103.222C347.041 97.2685 344 89.1964 344 79.0054V0H363.157V78.8541C363.157 84.1009 364.474 88.1874 367.11 91.1135C369.745 94.0396 373.596 95.5027 378.664 95.5027C383.631 95.5027 387.432 94.0396 390.067 91.1135C392.804 88.1874 394.172 84.1009 394.172 78.8541V0H413.329V79.0054C413.329 89.1964 410.288 97.2685 404.206 103.222C398.125 109.074 389.611 112 378.664 112Z" fill="#353534"/>
<path d="M435.771 110.486V0H454.775V44.6486H468.002L488.831 0H509.508L484.726 52.973L510.725 110.486H489.592L467.698 61.9027H454.775V110.486H435.771Z" fill="#353534"/>
<path d="M526.933 110.486V0H562.054C569.453 0 575.838 1.36216 581.21 4.08649C586.684 6.81081 590.941 10.645 593.981 15.5892C597.022 20.4324 598.543 26.1838 598.543 32.8432C598.543 40.1081 596.667 46.5153 592.917 52.0649C589.268 57.6144 584.302 61.5495 578.018 63.8703L600.063 110.486H578.778L559.469 66.5946H545.938V110.486H526.933ZM545.938 49.946H562.054C567.426 49.946 571.632 48.4829 574.673 45.5568C577.713 42.6306 579.234 38.5946 579.234 33.4487C579.234 28.2018 577.713 24.1153 574.673 21.1892C571.632 18.1622 567.426 16.6487 562.054 16.6487H545.938V49.946Z" fill="#353534"/>
<path d="M611.862 110.486L639.837 0H664.315L692.442 110.486H672.981L666.9 83.6973H637.404L631.323 110.486H611.862ZM640.901 68.2595H663.403L656.713 38.5946C655.598 33.6504 654.635 29.2108 653.824 25.2757C653.014 21.2396 652.456 18.3135 652.152 16.4973C651.848 18.3135 651.29 21.2396 650.48 25.2757C649.77 29.2108 648.807 33.6 647.591 38.4432L640.901 68.2595Z" fill="#353534"/>
<path d="M711.387 110.486V93.8378H733.736V16.6487H711.387V0H775.242V16.6487H752.893V93.8378H775.242V110.486H711.387Z" fill="#353534"/>
<path d="M799.813 110.486V0H823.074L853.938 89.2973C853.634 86.0685 853.279 82.2847 852.874 77.9459C852.57 73.5063 852.316 69.0162 852.113 64.4757C851.911 59.8342 851.809 55.7982 851.809 52.3676V0H869.141V110.486H845.88L815.321 21.1892C815.523 24.1153 815.777 27.6468 816.081 31.7838C816.385 35.9207 816.638 40.1586 816.841 44.4973C817.044 48.836 817.145 52.8216 817.145 56.4541V110.486H799.813Z" fill="#353534"/>
<path d="M893.408 110.486V0H960V16.4973H912.108V45.2541H954.679V61.6H912.108V93.9892H960V110.486H893.408Z" fill="#353534"/>
</svg>
