<svg width="960" height="112" viewBox="0 0 960 112" fill="none" xmlns="http://www.w3.org/2000/svg">
<path d="M0 112V95.1233H24.1955V16.8767H0V0H69.1301V16.8767H44.9345V95.1233H69.1301V112H0Z" fill="#353534"/>
<path d="M95.7302 112V0H120.913L154.326 90.5206C153.997 87.2475 153.613 83.4119 153.174 79.0137C152.845 74.5132 152.57 69.9616 152.351 65.3589C152.132 60.6539 152.022 56.5626 152.022 53.0849V0H170.786V112H145.603L112.519 21.4794C112.738 24.4457 113.013 28.0256 113.342 32.2192C113.671 36.4128 113.945 40.7087 114.165 45.1069C114.384 49.505 114.494 53.5452 114.494 57.2274V112H95.7302Z" fill="#353534"/>
<path d="M197.386 112V95.1233H221.581V16.8767H197.386V0H266.516V16.8767H242.32V95.1233H266.516V112H197.386Z" fill="#353534"/>
<path d="M320.274 112V17.7973H288.837V0H372.451V17.7973H341.013V112H320.274Z" fill="#353534"/>
<path d="M394.772 112V95.1233H418.967V16.8767H394.772V0H463.902V16.8767H439.706V95.1233H463.902V112H394.772Z" fill="#353534"/>
<path d="M484.412 112L514.698 0H541.197L571.648 112H550.579L543.995 84.8438H512.064L505.48 112H484.412ZM515.85 69.1945H540.21L532.968 39.1233C531.761 34.1114 530.718 29.611 529.84 25.6219C528.962 21.5306 528.359 18.5644 528.03 16.7233C527.701 18.5644 527.097 21.5306 526.219 25.6219C525.451 29.611 524.409 34.0603 523.092 38.9699L515.85 69.1945Z" fill="#353534"/>
<path d="M616.353 112V17.7973H584.915V0H668.53V17.7973H637.092V112H616.353Z" fill="#353534"/>
<path d="M690.851 112V95.1233H715.046V16.8767H690.851V0H759.981V16.8767H735.785V95.1233H759.981V112H690.851Z" fill="#353534"/>
<path d="M810.776 112L780.491 0H801.888L819.994 73.0301C820.981 76.61 821.914 80.4457 822.792 84.537C823.67 88.6283 824.328 91.9525 824.767 94.5096C825.206 91.9525 825.809 88.6283 826.577 84.537C827.346 80.4457 828.169 76.5589 829.046 72.8767L846.987 0H867.726L837.441 112H810.776Z" fill="#353534"/>
<path d="M887.907 112V0H960V16.7233H908.152V45.874H954.239V62.4438H908.152V95.2767H960V112H887.907Z" fill="#353534"/>
</svg>
