<svg width="128" height="48" viewBox="0 0 128 48" fill="none" xmlns="http://www.w3.org/2000/svg">
<g clip-path="url(#clip0_89_23)">
<path d="M0.528801 5.39907L20.1831 40.0231C21.2161 41.8521 23.5037 42.4792 25.2938 41.4244C27.0855 40.3679 27.7004 38.0251 26.6657 36.1927L11.7501 9.9614C11.1716 8.93703 11.8939 7.65742 13.051 7.65742H42.801C44.8687 7.65742 46.5447 5.94337 46.5447 3.82871C46.5431 1.71404 44.8671 0 42.7993 0H3.5767C0.86764 0 -0.826553 2.99873 0.528801 5.39907Z" fill="#353534"/>
<path d="M48.4209 28.4934L50.0605 25.7786C51.4919 26.7472 53.0622 27.2425 54.3547 27.2425C55.1167 27.2425 55.4621 27.0075 55.4621 26.5579V26.5106C55.4621 26.0153 54.7696 25.8023 53.4539 25.4253C50.9845 24.7644 49.0209 23.9141 49.0209 21.3397V21.2924C49.0209 18.5776 51.1448 17.0664 54.0307 17.0664C55.8539 17.0664 57.7481 17.609 59.1794 18.5539L57.6786 21.387C56.3861 20.6551 54.9778 20.2071 53.9845 20.2071C53.315 20.2071 52.9696 20.4658 52.9696 20.8207V20.8681C52.9696 21.3633 53.6853 21.6 55.001 22.0023C57.472 22.7106 59.434 23.5845 59.434 26.0626V26.1099C59.434 28.9193 57.3795 30.3832 54.3316 30.3832C52.2308 30.3832 50.1531 29.7696 48.4209 28.4934Z" fill="#353534"/>
<path d="M59.5713 23.7714V23.7258C59.5713 20.1134 62.3184 17.0674 66.2654 17.0674C68.8274 17.0674 70.5364 18.1999 71.5992 19.9241L68.6208 22.1909C68.0208 21.3407 67.3514 20.8454 66.2886 20.8454C64.8803 20.8454 63.8423 22.1199 63.8423 23.6801V23.7275C63.8423 25.3807 64.8588 26.6315 66.3348 26.6315C67.3745 26.6315 68.0439 26.1363 68.7365 25.3097L71.6687 27.4818C70.5133 29.2297 68.8522 30.4095 66.1051 30.4095C62.3415 30.4062 59.5713 27.3838 59.5713 23.7714Z" fill="#353534"/>
<path d="M72.1528 17.3262H76.5396V30.1004H72.1528V17.3262Z" fill="#353534"/>
<path d="M77.3232 23.7717V23.726C77.3232 19.9953 79.9315 17.0439 83.6256 17.0439C87.9429 17.0439 89.928 20.2776 89.928 24.0337C89.928 24.316 89.928 24.6473 89.9049 24.9549H81.548C81.8934 26.3478 82.8868 27.0561 84.2488 27.0561C85.2884 27.0561 86.1182 26.6554 87.019 25.7578L89.4438 27.8117C88.2421 29.3702 86.5116 30.4081 84.0174 30.4081C80.0935 30.4064 77.3232 27.7373 77.3232 23.7717ZM85.819 22.6628C85.657 21.2462 84.8488 20.3486 83.6488 20.3486C82.4951 20.3486 81.71 21.2699 81.4786 22.6628H85.819Z" fill="#353534"/>
<path d="M90.6436 17.3262H95.0303V19.1214C95.8385 18.0599 96.9922 17.0439 98.7707 17.0439C101.425 17.0439 103.019 18.8391 103.019 21.7415V30.1004H98.6319V23.1834C98.6319 21.7905 97.9162 21.0349 96.8765 21.0349C95.8137 21.0349 95.0303 21.7905 95.0303 23.1834V30.1004H90.6436V17.3262Z" fill="#353534"/>
<path d="M103.617 23.7714V23.7258C103.617 20.1134 106.364 17.0674 110.311 17.0674C112.873 17.0674 114.582 18.1999 115.645 19.9241L112.666 22.1909C112.066 21.3407 111.397 20.8454 110.334 20.8454C108.926 20.8454 107.888 22.1199 107.888 23.6801V23.7275C107.888 25.3807 108.904 26.6315 110.38 26.6315C111.42 26.6315 112.089 26.1363 112.78 25.3097L115.712 27.4818C114.557 29.2297 112.896 30.4095 110.149 30.4095C106.387 30.4062 103.617 27.3838 103.617 23.7714Z" fill="#353534"/>
<path d="M115.25 23.7717V23.726C115.25 19.9953 117.858 17.0439 121.552 17.0439C125.87 17.0439 127.855 20.2776 127.855 24.0337C127.855 24.316 127.855 24.6473 127.832 24.9549H119.475C119.82 26.3478 120.814 27.0561 122.176 27.0561C123.215 27.0561 124.045 26.6554 124.946 25.7578L127.369 27.8117C126.169 29.3702 124.437 30.4081 121.944 30.4081C118.022 30.4064 115.25 27.7373 115.25 23.7717ZM123.747 22.6628C123.585 21.2462 122.777 20.3486 121.577 20.3486C120.422 20.3486 119.638 21.2699 119.407 22.6628H123.747Z" fill="#353534"/>
<path d="M40.6177 34.92H45.0044V36.7152C45.8126 35.6519 46.9664 34.6377 48.7448 34.6377C51.3994 34.6377 52.9927 36.4329 52.9927 39.3369V47.6942H48.606V40.7772C48.606 39.3843 47.8903 38.6287 46.8523 38.6287C45.7895 38.6287 45.0044 39.3843 45.0044 40.7772V47.6942H40.6177V34.92Z" fill="#353534"/>
<path d="M53.5908 41.3651V41.3178C53.5908 37.6818 56.4999 34.6357 60.5163 34.6357C64.5097 34.6357 67.3956 37.6345 67.3956 41.2705V41.3178C67.3956 44.9538 64.4865 47.9999 60.4701 47.9999C56.4767 47.9999 53.5908 45.0011 53.5908 41.3651ZM63.1246 41.3651V41.3178C63.1246 39.7593 62.0172 38.4374 60.4701 38.4374C58.8767 38.4374 57.8618 39.7356 57.8618 41.2705V41.3178C57.8618 42.8763 58.9709 44.1982 60.5163 44.1982C62.1097 44.1982 63.1246 42.9 63.1246 41.3651Z" fill="#353534"/>
<path d="M66.6108 34.9194H70.905L72.5446 41.3412L74.4603 34.8721H78.0851L80.0239 41.3885L81.7098 34.9194H85.9346L82.0784 47.7866H78.2917L76.2603 41.1518L74.1826 47.7866H70.4191L66.6108 34.9194Z" fill="#353534"/>
<path fill-rule="evenodd" clip-rule="evenodd" d="M93.9361 47.5789H89.1725C88.9378 47.5789 88.7461 47.3845 88.7461 47.1428V42.2711C88.7461 42.031 88.9362 41.835 89.1725 41.835H93.9361C94.1708 41.835 94.3626 42.0294 94.3626 42.2711V47.1428C94.3609 47.3845 94.1708 47.5789 93.9361 47.5789Z" fill="#353534"/>
</g>
<defs>
<clipPath id="clip0_89_23">
<rect width="128" height="48" fill="white"/>
</clipPath>
</defs>
</svg>
