<svg width="400" height="48" viewBox="0 0 400 48" fill="none" xmlns="http://www.w3.org/2000/svg">
<g clip-path="url(#clip0_89_6)">
<path d="M211.193 27.7597C211.193 28.6946 210.956 29.4207 210.491 29.9478C210.017 30.475 209.334 30.7336 208.444 30.7336C207.554 30.7336 206.852 30.475 206.388 29.9478C205.923 29.4207 205.696 28.6946 205.696 27.7597V14.2031H202.709V27.7497C202.709 29.4704 203.214 30.833 204.212 31.8376C205.211 32.8422 206.625 33.3395 208.444 33.3395C210.264 33.3395 211.668 32.8422 212.676 31.8376C213.675 30.843 214.179 29.4804 214.179 27.7497V14.2031H211.193V27.7497V27.7597Z" fill="#353534"/>
<path d="M221.941 14.2031L217.185 33.0809H220.191L221.298 28.3764H226.47L227.577 33.0809H230.563L225.807 14.2031H221.951H221.941ZM221.842 25.9396L223.078 20.6084C223.286 19.7133 223.454 18.9176 223.592 18.2214C223.731 17.5251 223.82 17.0278 223.879 16.7294C223.929 17.0179 224.027 17.5152 224.176 18.2214C224.324 18.9176 224.502 19.7232 224.7 20.6383L225.906 25.9396H221.842Z" fill="#353534"/>
<path d="M260.029 23.055C260.652 22.1201 260.968 21.026 260.968 19.7728C260.968 18.6489 260.721 17.6741 260.236 16.8387C259.752 16.0032 259.05 15.3567 258.15 14.8992C257.25 14.4417 256.192 14.2129 254.976 14.2129H249.093V33.0906H252.02V25.4321H254.541L257.913 33.0906H261.235L257.478 25.0243C258.555 24.6464 259.406 23.9899 260.039 23.055H260.029ZM254.976 22.8262H252.02V16.8287H254.976C255.905 16.8287 256.637 17.0973 257.171 17.6443C257.715 18.1913 257.982 18.9274 257.982 19.8523C257.982 20.7773 257.715 21.4935 257.171 22.0206C256.627 22.5577 255.896 22.8262 254.976 22.8262Z" fill="#353534"/>
<path d="M264.794 33.0809H275.908V30.475H267.701V24.6068H275.009V21.9909H267.701V16.819H275.908V14.2031H264.794V33.0809Z" fill="#353534"/>
<path d="M287.299 22.4289L284.956 21.7526C284.273 21.5636 283.74 21.2254 283.364 20.7281C282.988 20.2408 282.8 19.644 282.8 18.9577C282.8 18.2018 283.047 17.6051 283.542 17.1873C284.036 16.7696 284.728 16.5508 285.598 16.5508C286.528 16.5508 287.24 16.7795 287.734 17.2271C288.229 17.6747 288.476 18.2913 288.476 19.087H291.432C291.432 17.5155 290.908 16.2623 289.85 15.3274C288.792 14.3925 287.398 13.915 285.648 13.915C284.461 13.915 283.443 14.1339 282.573 14.5715C281.703 15.0091 281.03 15.6158 280.556 16.3916C280.071 17.1674 279.834 18.0825 279.834 19.1368C279.834 20.4994 280.219 21.6631 281.001 22.6278C281.782 23.5926 282.869 24.2789 284.283 24.6668L286.567 25.3133C287.25 25.5023 287.784 25.8404 288.159 26.3377C288.535 26.8251 288.723 27.4119 288.723 28.0783C288.723 28.9039 288.456 29.5503 287.912 30.0178C287.368 30.4853 286.627 30.714 285.668 30.714C284.639 30.714 283.838 30.4753 283.265 29.988C282.691 29.5006 282.405 28.8641 282.405 28.0485H279.448C279.448 29.1326 279.705 30.0675 280.21 30.8533C280.714 31.639 281.426 32.2457 282.345 32.6734C283.265 33.1011 284.353 33.3199 285.628 33.3199C286.904 33.3199 287.932 33.0912 288.842 32.6436C289.751 32.196 290.453 31.5694 290.948 30.7737C291.442 29.9681 291.689 29.0332 291.689 27.9689C291.689 26.5864 291.314 25.4227 290.562 24.448C289.811 23.4832 288.723 22.8069 287.299 22.409V22.4289Z" fill="#353534"/>
<path d="M295.724 16.8488H299.511V30.4452H295.724V33.0809H306.264V30.4452H302.487V16.8488H306.264V14.2031H295.724V16.8488Z" fill="#353534"/>
<path d="M319.395 14.9292C318.476 14.4418 317.398 14.2031 316.142 14.2031H310.773V33.0809H316.142C317.398 33.0809 318.476 32.8422 319.395 32.3548C320.315 31.8674 321.027 31.1911 321.541 30.3158C322.055 29.4406 322.312 28.4062 322.312 27.2425V20.0316C322.312 18.8579 322.055 17.8335 321.541 16.9681C321.027 16.0929 320.315 15.4166 319.395 14.9391V14.9292ZM319.356 27.2425C319.356 28.2073 319.069 28.9731 318.495 29.5301C317.922 30.0871 317.141 30.3656 316.142 30.3656H313.729V16.9184H316.142C317.141 16.9184 317.922 17.1969 318.495 17.7539C319.069 18.3109 319.356 19.0668 319.356 20.0117V27.2226V27.2425Z" fill="#353534"/>
<path d="M326.504 33.0809H337.608V30.475H329.411V24.6068H336.708V21.9909H329.411V16.819H337.608V14.2031H326.504V33.0809Z" fill="#353534"/>
<path d="M350.284 23.6221C350.284 24.2288 350.304 24.9052 350.334 25.6611C350.363 26.417 350.413 27.153 350.462 27.8691C350.512 28.5852 350.561 29.2019 350.591 29.7191L345.222 14.2031H341.543V33.0809H344.272V23.463C344.272 22.8264 344.253 22.1401 344.223 21.424C344.183 20.6979 344.154 19.9918 344.124 19.3055C344.094 18.6192 344.045 18.0423 343.996 17.5749L349.345 33.0908H353.023V14.2031H350.294V23.6122L350.284 23.6221Z" fill="#353534"/>
<path d="M360.666 17.3059C361.18 16.8086 361.892 16.56 362.802 16.56C363.712 16.56 364.414 16.8186 364.908 17.3258C365.402 17.8331 365.65 18.5492 365.65 19.4841H368.636C368.636 18.3503 368.398 17.3656 367.914 16.55C367.429 15.7345 366.757 15.0979 365.887 14.6404C365.017 14.1829 363.988 13.9541 362.802 13.9541C361.615 13.9541 360.587 14.1829 359.717 14.6304C358.847 15.078 358.165 15.7146 357.67 16.5401C357.176 17.3656 356.938 18.3503 356.938 19.4841V27.8091C356.938 28.933 357.186 29.9077 357.67 30.7432C358.155 31.5786 358.837 32.2251 359.717 32.6727C360.587 33.1203 361.615 33.349 362.802 33.349C363.988 33.349 365.017 33.1203 365.887 32.6628C366.757 32.2052 367.439 31.5687 367.914 30.7332C368.389 29.8977 368.636 28.933 368.636 27.8091H365.65C365.65 28.744 365.402 29.4601 364.908 29.9674C364.414 30.4746 363.712 30.7332 362.802 30.7332C361.892 30.7332 361.18 30.4746 360.666 29.9674C360.152 29.4601 359.895 28.744 359.895 27.8091V19.4841C359.895 18.5393 360.152 17.8132 360.666 17.3159V17.3059Z" fill="#353534"/>
<path d="M378.998 21.1155C378.791 21.6029 378.613 22.0604 378.474 22.498C378.326 22.9356 378.227 23.2738 378.178 23.5225C378.128 23.2838 378.029 22.9456 377.881 22.498C377.733 22.0604 377.555 21.5929 377.327 21.1155L374.163 14.2129H371.108L376.635 26.1582V33.0906H379.621V26.1582L385.149 14.2129H382.093L379.008 21.1155H378.998Z" fill="#353534"/>
<path d="M392.584 0H195.165C191.071 0 187.749 3.3419 187.749 7.45959V23.2143H142.868V8.26523H154.605V2.08869H124.625V8.26523H136.362V46.339H142.868V25.2035H187.749V40.5404C187.749 44.6581 191.071 48 195.165 48H392.584C396.678 48 400 44.6581 400 40.5404V7.45959C400 3.3419 396.678 0 392.584 0ZM398.022 40.5404C398.022 43.5541 395.58 46.0108 392.584 46.0108H195.165C192.169 46.0108 189.727 43.5541 189.727 40.5404V7.45959C189.727 4.44592 192.169 1.98923 195.165 1.98923H392.584C395.58 1.98923 398.022 4.44592 398.022 7.45959V40.5404Z" fill="#353534"/>
<path d="M18.3023 21.7226L12.7058 20.0218C11.015 19.5345 9.71968 18.689 8.81989 17.4756C7.92011 16.2622 7.46527 14.8299 7.46527 13.1789C7.46527 11.319 8.06842 9.87677 9.27473 8.85232C10.481 7.82787 12.1422 7.31067 14.2681 7.31067C16.3939 7.31067 18.1935 7.86765 19.4196 8.97167C20.6457 10.0856 21.2488 11.6074 21.2488 13.5469H27.755C27.7154 9.87677 26.4795 6.94266 24.057 4.76446C22.7221 3.57093 21.1598 2.70561 19.3504 2.15858C17.8573 1.711 16.2061 1.49219 14.3966 1.49219C12.5871 1.49219 10.9458 1.711 9.45271 2.15858C8.69135 2.37739 7.96955 2.66583 7.28729 3.004C5.54704 3.87926 4.15286 5.06285 3.10476 6.54482C2.94656 6.77358 2.79824 7.00234 2.64992 7.24105C1.56227 9.06119 1.02833 11.1797 1.02833 13.5966C1.02833 16.3616 1.72047 18.7885 3.10476 20.8672C3.27285 21.1258 3.45083 21.3745 3.64859 21.6132C5.38884 23.8511 7.87067 25.4425 11.0842 26.3674L16.6213 27.9986C18.3122 28.4462 19.5976 29.2717 20.5072 30.4752C21.407 31.6886 21.8619 33.1209 21.8619 34.7719C21.8619 36.7512 21.1994 38.3028 19.8744 39.4367C18.5495 40.5705 16.7202 41.1275 14.3966 41.1275C11.9049 41.1275 9.96688 40.5506 8.55292 39.4068C7.14886 38.2531 6.44683 36.6716 6.44683 34.6526H0C0 37.1988 0.583379 39.3869 1.74025 41.227C2.13576 41.8536 2.5906 42.4205 3.09487 42.9476C4.07376 43.9721 5.27018 44.8076 6.67425 45.464C7.44549 45.8221 8.27607 46.1105 9.15608 46.3393C10.7085 46.7471 12.4289 46.946 14.3175 46.946C16.0775 46.946 17.6892 46.7471 19.1724 46.3393C20.0524 46.1006 20.883 45.7922 21.6641 45.4043C23.7504 44.3699 25.372 42.9178 26.5388 41.0479C27.7055 39.1681 28.279 36.9999 28.279 34.5332C28.279 31.3902 27.4188 28.6849 25.6884 26.4172C23.9581 24.1495 21.496 22.578 18.2825 21.6928L18.3023 21.7226Z" fill="#353534"/>
<path d="M56.6768 3.79913C54.5707 2.70506 52.0889 2.16797 49.2412 2.16797H34.8545V46.3586H41.3508V34.5526H49.2412C52.0889 34.5526 54.5608 34.0055 56.6471 32.9214C58.7335 31.8273 60.3551 30.2757 61.5218 28.2567C62.6886 26.2376 63.2621 23.9003 63.2621 21.2347V15.4858C63.2621 12.7805 62.6886 10.4332 61.5515 8.43403C60.4045 6.43486 58.7829 4.89321 56.6768 3.79913ZM56.6471 21.2347C56.6471 23.4925 55.9748 25.3027 54.63 26.6553C53.2853 28.008 51.4857 28.6843 49.2412 28.6843H41.3508V8.03618H49.2412C51.4857 8.03618 53.2853 8.70257 54.63 10.0354C55.9748 11.3681 56.6471 13.1883 56.6471 15.4858V21.2347Z" fill="#353534"/>
<path d="M75.8493 2.09863H69.353V46.3589H87.5861V40.3017H75.8493V2.09863Z" fill="#353534"/>
<path d="M121.115 17.4656H115.034V14.4419C115.034 11.7764 114.5 9.47882 113.442 7.53933C112.375 5.59983 110.852 4.11786 108.864 3.09341C108.143 2.71545 107.371 2.41707 106.551 2.17836C105.117 1.76063 103.525 1.55176 101.785 1.55176H99.214C97.4737 1.55176 95.8917 1.76063 94.4481 2.17836C93.6274 2.41707 92.8561 2.7254 92.1343 3.09341C90.1469 4.11786 88.6242 5.60978 87.5563 7.53933C86.4884 9.47882 85.9644 11.7764 85.9644 14.4419V17.4656H92.0651V31.042H98.1362V34.0656C98.1362 36.7312 98.6701 39.0288 99.7281 40.9683C100.796 42.9077 102.319 44.3897 104.306 45.4142C105.028 45.7921 105.799 46.0905 106.62 46.3292C108.054 46.747 109.646 46.9558 111.386 46.9558H113.957C115.697 46.9558 117.279 46.747 118.723 46.3292C119.543 46.0905 120.314 45.7822 121.036 45.4142C123.024 44.3897 124.546 42.8978 125.614 40.9683C126.682 39.0288 127.206 36.7312 127.206 34.0656V31.042H121.106V17.4656H121.115ZM120.71 34.0756C120.71 36.3831 120.127 38.1336 118.97 39.347C117.803 40.5605 116.142 41.1672 113.976 41.1672H111.406C109.24 41.1672 107.569 40.5605 106.412 39.347C105.246 38.1336 104.672 36.3831 104.672 34.0756V31.052H98.5713V17.4755H92.5002V14.4519C92.5002 12.1444 93.0835 10.3939 94.2404 9.18044C95.4072 7.96701 97.0683 7.36029 99.2337 7.36029H101.805C103.97 7.36029 105.641 7.96701 106.798 9.18044C107.965 10.3939 108.538 12.1444 108.538 14.4519V17.4755H114.639V31.052H120.71V34.0756Z" fill="#353534"/>
</g>
<defs>
<clipPath id="clip0_89_6">
<rect width="400" height="48" fill="white"/>
</clipPath>
</defs>
</svg>
