<svg width="168" height="24" viewBox="0 0 168 24" fill="none" xmlns="http://www.w3.org/2000/svg">
<path d="M6.51593 19.5652C5.19385 19.5652 4.04348 19.3391 3.0648 18.887C2.08613 18.4348 1.33066 17.8 0.798394 16.9826C0.266131 16.1652 0 15.2 0 14.087H3.8632C3.8632 14.7304 4.10357 15.2435 4.58433 15.6261C5.08225 15.9913 5.75187 16.1739 6.59319 16.1739C7.40017 16.1739 8.02687 15.9913 8.47328 15.6261C8.93686 15.2609 9.16866 14.7565 9.16866 14.113C9.16866 13.5565 8.99696 13.0783 8.65356 12.6783C8.31017 12.2783 7.82941 12.0087 7.2113 11.8696L5.30546 11.4261C3.70867 11.0435 2.46386 10.3391 1.57103 9.31304C0.695376 8.26956 0.257547 7 0.257547 5.50435C0.257547 4.3913 0.506508 3.42609 1.00443 2.60869C1.51952 1.77391 2.24065 1.13043 3.16782 0.67826C4.09499 0.226087 5.19385 0 6.46442 0C8.38743 0 9.90696 0.486956 11.023 1.46087C12.1562 2.41739 12.7228 3.71304 12.7228 5.34783H8.8596C8.8596 4.73913 8.64498 4.26087 8.21573 3.91304C7.80366 3.56522 7.20272 3.3913 6.41291 3.3913C5.67461 3.3913 5.10801 3.56522 4.7131 3.91304C4.3182 4.24348 4.12074 4.72174 4.12074 5.34783C4.12074 5.90435 4.27527 6.38261 4.58433 6.78261C4.91055 7.16522 5.36555 7.42608 5.94932 7.56522L7.95819 8.03478C9.62365 8.41739 10.8856 9.11304 11.7441 10.1217C12.6026 11.113 13.0319 12.3826 13.0319 13.9304C13.0319 15.0435 12.7571 16.0261 12.2077 16.8783C11.6754 17.7304 10.92 18.3913 9.9413 18.8609C8.97979 19.3304 7.838 19.5652 6.51593 19.5652Z" fill="#353534"/>
<path d="M23.5039 19.3043C22.0617 19.3043 20.9285 18.887 20.1043 18.0522C19.2802 17.2174 18.8681 16.0696 18.8681 14.6087V8.47826H15.1337V4.95652H18.8681V0.913043H22.7313V4.95652H28.011V8.47826H22.7313V14.6087C22.7313 15.3913 23.1176 15.7826 23.8903 15.7826H27.7535V19.3043H23.5039Z" fill="#353534"/>
<path d="M37.4014 19.5652C35.4955 19.5652 34.0018 19.0435 32.9201 18C31.8556 16.9565 31.3233 15.5304 31.3233 13.7217V4.95652H35.1865V13.6957C35.1865 14.4957 35.3754 15.113 35.7531 15.5478C36.1308 15.9652 36.6803 16.1739 37.4014 16.1739C38.1053 16.1739 38.6462 15.9652 39.0239 15.5478C39.4188 15.113 39.6163 14.4957 39.6163 13.6957V4.95652H43.4795V13.7217C43.4795 15.5478 42.9386 16.9826 41.8569 18.0261C40.7752 19.0522 39.2901 19.5652 37.4014 19.5652Z" fill="#353534"/>
<path d="M51.3761 19.5652C49.951 19.5652 48.8092 19.0609 47.9507 18.0522C47.0922 17.0435 46.663 15.6783 46.663 13.9565V10.3043C46.663 8.6 47.0922 7.24348 47.9507 6.23478C48.8092 5.20869 49.951 4.69565 51.3761 4.69565C52.5436 4.69565 53.4622 5.04348 54.1318 5.73913C54.8015 6.41739 55.1363 7.37391 55.1363 8.60869L54.2349 7.69565H55.1363L55.0075 4.17391V0.260869H58.8707V19.3043H55.1363V16.5652H54.2349L55.1363 15.6522C55.1363 16.887 54.8015 17.8522 54.1318 18.5478C53.4622 19.2261 52.5436 19.5652 51.3761 19.5652ZM52.7669 16.1739C53.4708 16.1739 54.0202 15.9739 54.4152 15.5739C54.8101 15.1565 55.0075 14.5739 55.0075 13.8261V10.4348C55.0075 9.68695 54.8101 9.11304 54.4152 8.71304C54.0202 8.29565 53.4708 8.08696 52.7669 8.08696C52.0457 8.08696 51.4877 8.29565 51.0928 8.71304C50.7151 9.11304 50.5262 9.68695 50.5262 10.4348V13.8261C50.5262 14.5739 50.7151 15.1565 51.0928 15.5739C51.4877 15.9739 52.0457 16.1739 52.7669 16.1739Z" fill="#353534"/>
<path d="M64.6039 24L66.5355 18.6L61.2301 4.95652H65.4281L67.5657 11.2174C67.7202 11.687 67.8748 12.2609 68.0293 12.9391C68.201 13.6 68.3298 14.1391 68.4156 14.5565C68.5015 14.1391 68.6217 13.6 68.7762 12.9391C68.9479 12.2609 69.111 11.687 69.2655 11.2174L71.3259 4.95652H75.3436L68.6474 24H64.6039Z" fill="#353534"/>
<path d="M82.0555 19.5652C80.4072 19.5652 79.1281 19.0956 78.2181 18.1565C77.3253 17.2174 76.8788 15.9043 76.8788 14.2174V12.3913C76.8788 11.0522 77.2051 9.97391 77.8575 9.15652C78.51 8.33913 79.4286 7.86956 80.6133 7.74783L80.1754 9.13043C79.6432 8.36522 79.2225 7.6 78.9135 6.83478C78.6044 6.06956 78.4499 5.31304 78.4499 4.56522C78.4499 3.66087 78.6645 2.86956 79.0937 2.1913C79.523 1.51304 80.1239 0.982608 80.8966 0.6C81.6692 0.2 82.5706 0 83.6008 0C84.6653 0 85.5925 0.208696 86.3823 0.626087C87.1721 1.04348 87.7816 1.62609 88.2109 2.37391C88.6573 3.10435 88.8805 3.96522 88.8805 4.95652H85.4036C85.4036 4.5913 85.3264 4.27826 85.1718 4.01739C85.0345 3.73913 84.8284 3.52174 84.5537 3.36522C84.279 3.2087 83.9614 3.13043 83.6008 3.13043C83.2402 3.13043 82.9226 3.2087 82.6479 3.36522C82.3732 3.52174 82.1585 3.73913 82.004 4.01739C81.8667 4.27826 81.798 4.5913 81.798 4.95652C81.798 5.37391 81.9182 5.83478 82.1585 6.33913C82.3989 6.82609 82.7166 7.35652 83.1115 7.93043L86.0732 12.2348L87.1807 9.91304H90.7863L88.1594 15.2609L90.9409 19.3043H87.258L86.3308 17.9739C85.1804 19.0348 83.7553 19.5652 82.0555 19.5652ZM82.4161 16.4348C82.8453 16.4348 83.2317 16.3391 83.575 16.1478C83.9356 15.9565 84.2447 15.6957 84.5022 15.3652L81.1541 10.5652C80.9309 10.7391 80.7592 10.9826 80.639 11.2957C80.536 11.5913 80.4845 11.9565 80.4845 12.3913V14.2174C80.4845 14.9304 80.6562 15.4783 80.9996 15.8609C81.3601 16.2435 81.8323 16.4348 82.4161 16.4348Z" fill="#353534"/>
<path d="M93.1457 19.3043V0.260869H99.1981C101.104 0.260869 102.623 0.704348 103.757 1.5913C104.89 2.46087 105.456 3.64348 105.456 5.13913C105.456 5.97391 105.259 6.70435 104.864 7.33043C104.486 7.95652 103.971 8.44348 103.319 8.7913C102.684 9.13913 101.988 9.31304 101.233 9.31304V9.3913C102.074 9.37391 102.838 9.53043 103.525 9.86087C104.229 10.1913 104.795 10.687 105.225 11.3478C105.654 12.0087 105.869 12.8261 105.869 13.8C105.869 14.913 105.602 15.887 105.07 16.7217C104.555 17.5391 103.817 18.1739 102.855 18.6261C101.894 19.0783 100.752 19.3043 99.4298 19.3043H93.1457ZM96.8801 16.1478H99.2753C100.117 16.1478 100.778 15.9217 101.258 15.4696C101.739 15.0174 101.98 14.3913 101.98 13.5913C101.98 12.7913 101.739 12.1652 101.258 11.713C100.778 11.2435 100.117 11.0087 99.2753 11.0087H96.8801V16.1478ZM96.8801 7.93043H99.1466C99.902 7.93043 100.494 7.73043 100.924 7.33043C101.353 6.91304 101.567 6.35652 101.567 5.66087C101.567 4.94783 101.353 4.4 100.924 4.01739C100.494 3.61739 99.902 3.41739 99.1466 3.41739H96.8801V7.93043Z" fill="#353534"/>
<path d="M114.615 19.5652C112.709 19.5652 111.215 19.0435 110.134 18C109.069 16.9565 108.537 15.5304 108.537 13.7217V4.95652H112.4V13.6957C112.4 14.4957 112.589 15.113 112.967 15.5478C113.344 15.9652 113.894 16.1739 114.615 16.1739C115.319 16.1739 115.86 15.9652 116.238 15.5478C116.632 15.113 116.83 14.4957 116.83 13.6957V4.95652H120.693V13.7217C120.693 15.5478 120.152 16.9826 119.071 18.0261C117.989 19.0522 116.504 19.5652 114.615 19.5652Z" fill="#353534"/>
<path d="M128.59 19.5652C127.165 19.5652 126.023 19.0609 125.164 18.0522C124.306 17.0435 123.877 15.6783 123.877 13.9565V10.3043C123.877 8.6 124.306 7.24348 125.164 6.23478C126.023 5.20869 127.165 4.69565 128.59 4.69565C129.757 4.69565 130.676 5.04348 131.345 5.73913C132.015 6.41739 132.35 7.37391 132.35 8.60869L131.449 7.69565H132.35L132.221 4.17391V0.260869H136.084V19.3043H132.35V16.5652H131.449L132.35 15.6522C132.35 16.887 132.015 17.8522 131.345 18.5478C130.676 19.2261 129.757 19.5652 128.59 19.5652ZM129.98 16.1739C130.684 16.1739 131.234 15.9739 131.629 15.5739C132.024 15.1565 132.221 14.5739 132.221 13.8261V10.4348C132.221 9.68695 132.024 9.11304 131.629 8.71304C131.234 8.29565 130.684 8.08696 129.98 8.08696C129.259 8.08696 128.701 8.29565 128.306 8.71304C127.929 9.11304 127.74 9.68695 127.74 10.4348V13.8261C127.74 14.5739 127.929 15.1565 128.306 15.5739C128.701 15.9739 129.259 16.1739 129.98 16.1739Z" fill="#353534"/>
<path d="M144.032 19.5652C142.607 19.5652 141.466 19.0609 140.607 18.0522C139.749 17.0435 139.319 15.6783 139.319 13.9565V10.3043C139.319 8.6 139.749 7.24348 140.607 6.23478C141.466 5.20869 142.607 4.69565 144.032 4.69565C145.2 4.69565 146.119 5.04348 146.788 5.73913C147.458 6.41739 147.793 7.37391 147.793 8.60869L146.891 7.69565H147.793L147.664 4.17391V0.260869H151.527V19.3043H147.793V16.5652H146.891L147.793 15.6522C147.793 16.887 147.458 17.8522 146.788 18.5478C146.119 19.2261 145.2 19.5652 144.032 19.5652ZM145.423 16.1739C146.127 16.1739 146.677 15.9739 147.072 15.5739C147.466 15.1565 147.664 14.5739 147.664 13.8261V10.4348C147.664 9.68695 147.466 9.11304 147.072 8.71304C146.677 8.29565 146.127 8.08696 145.423 8.08696C144.702 8.08696 144.144 8.29565 143.749 8.71304C143.371 9.11304 143.183 9.68695 143.183 10.4348V13.8261C143.183 14.5739 143.371 15.1565 143.749 15.5739C144.144 15.9739 144.702 16.1739 145.423 16.1739Z" fill="#353534"/>
<path d="M157.26 24L159.192 18.6L153.886 4.95652H158.084L160.222 11.2174C160.377 11.687 160.531 12.2609 160.686 12.9391C160.857 13.6 160.986 14.1391 161.072 14.5565C161.158 14.1391 161.278 13.6 161.433 12.9391C161.604 12.2609 161.767 11.687 161.922 11.2174L163.982 4.95652H168L161.304 24H157.26Z" fill="#353534"/>
</svg>
