<svg width="144" height="24" viewBox="0 0 144 24" fill="none" xmlns="http://www.w3.org/2000/svg">
<path d="M6.27652 17.8388C5.10062 17.8388 4.0469 17.6398 3.11535 17.2418C2.1838 16.8438 1.43551 16.2547 0.870466 15.4746C0.320698 14.6945 0.0305427 13.7552 0 12.6567H4.16907C4.23016 13.2776 4.43632 13.7552 4.78756 14.0896C5.1388 14.408 5.59694 14.5672 6.16198 14.5672C6.74229 14.5672 7.20043 14.4318 7.5364 14.1612C7.87237 13.8746 8.04036 13.4846 8.04036 12.991C8.04036 12.5771 7.90291 12.2348 7.62803 11.9642C7.36842 11.6935 7.04008 11.4706 6.64303 11.2955C6.26125 11.1204 5.71148 10.9214 4.99373 10.6985C3.95528 10.3642 3.10772 10.0299 2.45105 9.69552C1.79438 9.36119 1.22934 8.86766 0.755931 8.21493C0.28252 7.56219 0.045814 6.71045 0.045814 5.6597C0.045814 4.0995 0.587946 2.88159 1.67221 2.00597C2.75648 1.11443 4.16907 0.668657 5.91001 0.668657C7.68148 0.668657 9.10935 1.11443 10.1936 2.00597C11.2779 2.88159 11.8582 4.10746 11.9345 5.68358H7.69675C7.66621 5.14229 7.47532 4.7204 7.12408 4.41791C6.77284 4.0995 6.32233 3.9403 5.77256 3.9403C5.29915 3.9403 4.91737 4.07562 4.62721 4.34627C4.33706 4.60099 4.19198 4.97512 4.19198 5.46866C4.19198 6.00995 4.43632 6.43184 4.925 6.73433C5.41369 7.03682 6.17725 7.36318 7.2157 7.71343C8.25415 8.0796 9.09408 8.42985 9.73547 8.76418C10.3921 9.09851 10.9572 9.58408 11.4306 10.2209C11.904 10.8577 12.1407 11.6776 12.1407 12.6806C12.1407 13.6358 11.904 14.5035 11.4306 15.2836C10.9725 16.0637 10.3005 16.6846 9.41478 17.1463C8.52904 17.608 7.48295 17.8388 6.27652 17.8388Z" fill="#353534"/>
<path d="M21.6754 14.209V17.6716H19.6825C18.2622 17.6716 17.1551 17.3134 16.361 16.597C15.5669 15.8647 15.1698 14.6786 15.1698 13.0388V7.73731H13.6121V4.34627H15.1698V1.09851H19.0869V4.34627H21.6525V7.73731H19.0869V13.0866C19.0869 13.4846 19.1785 13.7711 19.3618 13.9463C19.545 14.1214 19.8505 14.209 20.2781 14.209H21.6754Z" fill="#353534"/>
<path d="M36.479 4.34627V17.6716H32.5619V15.8567C32.1649 16.4458 31.6227 16.9234 30.9355 17.2896C30.2636 17.6398 29.5153 17.8149 28.6907 17.8149C27.7133 17.8149 26.8505 17.592 26.1022 17.1463C25.3539 16.6846 24.7736 16.0239 24.3612 15.1642C23.9489 14.3045 23.7427 13.2935 23.7427 12.1313V4.34627H27.6369V11.5821C27.6369 12.4736 27.8584 13.1662 28.3012 13.6597C28.7441 14.1532 29.3397 14.4 30.088 14.4C30.8515 14.4 31.4548 14.1532 31.8976 13.6597C32.3405 13.1662 32.5619 12.4736 32.5619 11.5821V4.34627H36.479Z" fill="#353534"/>
<path d="M38.5138 10.9851C38.5138 9.61592 38.7582 8.41393 39.2468 7.37911C39.7508 6.34428 40.4304 5.54826 41.2856 4.99104C42.1408 4.43383 43.0952 4.15522 44.1489 4.15522C44.9889 4.15522 45.7524 4.33831 46.4396 4.70448C47.1421 5.07065 47.6919 5.56418 48.0889 6.18507V0H52.006V17.6716H48.0889V15.7612C47.7224 16.398 47.1956 16.9075 46.5084 17.2896C45.8364 17.6716 45.0499 17.8627 44.1489 17.8627C43.0952 17.8627 42.1408 17.5841 41.2856 17.0269C40.4304 16.4537 39.7508 15.6498 39.2468 14.6149C38.7582 13.5642 38.5138 12.3542 38.5138 10.9851ZM48.0889 11.009C48.0889 9.99005 47.8141 9.18607 47.2643 8.59702C46.7298 8.00796 46.0731 7.71343 45.2943 7.71343C44.5154 7.71343 43.8511 8.00796 43.3014 8.59702C42.7669 9.17015 42.4996 9.96617 42.4996 10.9851C42.4996 12.004 42.7669 12.8159 43.3014 13.4209C43.8511 14.01 44.5154 14.3045 45.2943 14.3045C46.0731 14.3045 46.7298 14.01 47.2643 13.4209C47.8141 12.8318 48.0889 12.0279 48.0889 11.009Z" fill="#353534"/>
<path d="M67.8969 4.34627L59.8794 24H55.6645L58.5966 17.2179L53.3967 4.34627H57.772L60.727 12.6806L63.6591 4.34627H67.8969Z" fill="#353534"/>
<path d="M79.0488 9.07463C79.9804 9.28159 80.7287 9.76716 81.2937 10.5313C81.8587 11.2796 82.1413 12.1393 82.1413 13.1104C82.1413 14.5114 81.6679 15.6259 80.721 16.4537C79.7895 17.2657 78.4838 17.6716 76.8039 17.6716H69.3133V0.907462H76.552C78.186 0.907462 79.4611 1.29751 80.3774 2.07761C81.309 2.85771 81.7747 3.91642 81.7747 5.25373C81.7747 6.2408 81.5228 7.0607 81.0188 7.71343C80.5301 8.36617 79.8735 8.8199 79.0488 9.07463ZM73.2304 7.68955H75.796C76.4374 7.68955 76.9261 7.54627 77.2621 7.2597C77.6133 6.95721 77.7889 6.5194 77.7889 5.94627C77.7889 5.37313 77.6133 4.93532 77.2621 4.63284C76.9261 4.33035 76.4374 4.1791 75.796 4.1791H73.2304V7.68955ZM76.1167 14.3761C76.7734 14.3761 77.2773 14.2249 77.6286 13.9224C77.9951 13.604 78.1784 13.1503 78.1784 12.5612C78.1784 11.9721 77.9875 11.5104 77.6057 11.1761C77.2392 10.8418 76.7276 10.6746 76.0709 10.6746H73.2304V14.3761H76.1167Z" fill="#353534"/>
<path d="M97.0349 4.34627V17.6716H93.1178V15.8567C92.7208 16.4458 92.1786 16.9234 91.4914 17.2896C90.8195 17.6398 90.0712 17.8149 89.2466 17.8149C88.2692 17.8149 87.4064 17.592 86.6581 17.1463C85.9098 16.6846 85.3295 16.0239 84.9171 15.1642C84.5048 14.3045 84.2986 13.2935 84.2986 12.1313V4.34627H88.1928V11.5821C88.1928 12.4736 88.4143 13.1662 88.8571 13.6597C89.3 14.1532 89.8956 14.4 90.6439 14.4C91.4074 14.4 92.0107 14.1532 92.4535 13.6597C92.8964 13.1662 93.1178 12.4736 93.1178 11.5821V4.34627H97.0349Z" fill="#353534"/>
<path d="M99.0697 10.9851C99.0697 9.61592 99.3141 8.41393 99.8027 7.37911C100.307 6.34428 100.986 5.54826 101.841 4.99104C102.697 4.43383 103.651 4.15522 104.705 4.15522C105.545 4.15522 106.308 4.33831 106.996 4.70448C107.698 5.07065 108.248 5.56418 108.645 6.18507V0H112.562V17.6716H108.645V15.7612C108.278 16.398 107.751 16.9075 107.064 17.2896C106.392 17.6716 105.606 17.8627 104.705 17.8627C103.651 17.8627 102.697 17.5841 101.841 17.0269C100.986 16.4537 100.307 15.6498 99.8027 14.6149C99.3141 13.5642 99.0697 12.3542 99.0697 10.9851ZM108.645 11.009C108.645 9.99005 108.37 9.18607 107.82 8.59702C107.286 8.00796 106.629 7.71343 105.85 7.71343C105.071 7.71343 104.407 8.00796 103.857 8.59702C103.323 9.17015 103.056 9.96617 103.056 10.9851C103.056 12.004 103.323 12.8159 103.857 13.4209C104.407 14.01 105.071 14.3045 105.85 14.3045C106.629 14.3045 107.286 14.01 107.82 13.4209C108.37 12.8318 108.645 12.0279 108.645 11.009Z" fill="#353534"/>
<path d="M114.617 10.9851C114.617 9.61592 114.861 8.41393 115.35 7.37911C115.854 6.34428 116.534 5.54826 117.389 4.99104C118.244 4.43383 119.198 4.15522 120.252 4.15522C121.092 4.15522 121.856 4.33831 122.543 4.70448C123.245 5.07065 123.795 5.56418 124.192 6.18507V0H128.109V17.6716H124.192V15.7612C123.826 16.398 123.299 16.9075 122.611 17.2896C121.94 17.6716 121.153 17.8627 120.252 17.8627C119.198 17.8627 118.244 17.5841 117.389 17.0269C116.534 16.4537 115.854 15.6498 115.35 14.6149C114.861 13.5642 114.617 12.3542 114.617 10.9851ZM124.192 11.009C124.192 9.99005 123.917 9.18607 123.367 8.59702C122.833 8.00796 122.176 7.71343 121.397 7.71343C120.619 7.71343 119.954 8.00796 119.405 8.59702C118.87 9.17015 118.603 9.96617 118.603 10.9851C118.603 12.004 118.87 12.8159 119.405 13.4209C119.954 14.01 120.619 14.3045 121.397 14.3045C122.176 14.3045 122.833 14.01 123.367 13.4209C123.917 12.8318 124.192 12.0279 124.192 11.009Z" fill="#353534"/>
<path d="M144 4.34627L135.983 24H131.768L134.7 17.2179L129.5 4.34627H133.875L136.83 12.6806L139.762 4.34627H144Z" fill="#353534"/>
</svg>
